<svg xmlns="http://www.w3.org/2000/svg" fill="none" viewBox="0 0 36 36"><rect width="36" height="36" fill="#F3F7FB" rx="18"/><path stroke="#2A88BA" stroke-linecap="round" stroke-linejoin="round" stroke-width="2" d="M11 14v8a3 3 0 0 0 3 3h8a3 3 0 0 0 3-3v-8a3 3 0 0 0-3-3h-8a3 3 0 0 0-3 3Z"/><path fill="#005786" d="M22.571 10H13.43C11.535 10 10 11.612 10 13.6V16h16v-2.4c0-1.988-1.535-3.6-3.429-3.6Zm-9.142 4.6c-.631 0-1.143-.538-1.143-1.2 0-.662.512-1.2 1.143-1.2.63 0 1.142.538 1.142 1.2 0 .662-.512 1.2-1.142 1.2Zm3.428 0c-.63 0-1.143-.538-1.143-1.2 0-.662.512-1.2 1.143-1.2S18 12.738 18 13.4c0 .662-.512 1.2-1.143 1.2Z"/></svg>