
<svg xmlns="http://www.w3.org/2000/svg" fill="none" viewBox="0 0 48 48"><rect width="48" height="48" fill="#0062E3" rx="24"/><path fill="#fff" d="m39.502 24.327-9.85-5.416-.33-.193c-.28-.11-.578-.166-.88-.165-.302 0-.605.055-.88.165l-.385.22-1.541.853c-.028.027-.028.055 0 .083l.633.33 3.714 2.034 2.2 1.21s-3.245.138-6.245 1.87a3.535 3.535 0 0 1-1.816.495h-.137a3.535 3.535 0 0 1-1.815-.494c-3-1.733-6.246-1.87-6.246-1.87l8.116-4.483 2.889-1.623c.303-.166 1.349-.825 2.531-.468.524.138 1.404.633 2.118 1.046a1.356 1.356 0 0 0 1.735-.303 1.42 1.42 0 0 0 .33-.907c0-.468-.22-.908-.661-1.183-.935-.577-2.228-1.266-3.274-1.43-2.696-.468-4.402.853-5.695 1.54-.991-.797-2.998-1.98-5.668-1.54-1.073.192-2.338.852-3.274 1.429-.715.44-.88 1.43-.33 2.063.275.302.66.467 1.046.467.247 0 .467-.054.687-.192.716-.413 1.596-.908 2.119-1.046 1.403-.385 2.613.524 2.613.524L8.523 24.327c-.33.164-.523.523-.523.88v1.733c0 .357.193.687.523.88.33.164.413.275.413.907 0 1.1-.743 7.124 7.126 7.124 7.07 0 6.19-6.904 7.95-6.876 1.79-.028.909 6.876 7.952 6.876 7.87 0 7.126-6.024 7.126-7.124 0-.632.054-.715.385-.907a.986.986 0 0 0 .523-.88v-1.733a.933.933 0 0 0-.495-.88Zm-19.781 7.316c-.77 1.623-2.118 1.87-4.072 1.788-1.458-.055-2.807-.523-3.494-1.32-.99-1.128-.88-4.51-.496-5.253.744-1.43 7.567-.99 8.474.825.11.193.716 1.623-.412 3.96Zm16.15.468c-.688.77-2.035 1.237-3.495 1.32-1.925.083-3.273-.166-4.07-1.788-1.129-2.337-.524-3.767-.441-3.96.908-1.815 7.758-2.255 8.474-.825.412.77.522 4.152-.468 5.253Z"/></svg>