<svg xmlns="http://www.w3.org/2000/svg" width="12" height="12" fill="none"><path fill="#FBC02D" d="M10.902 5.02h-.403V5H6v2h2.826a2.999 2.999 0 1 1-2.826-4c.765 0 1.46.288 1.99.76l1.415-1.414A4.977 4.977 0 0 0 5.999 1a5 5 0 1 0 4.903 4.02Z"/><path fill="#E53935" d="M1.576 3.673 3.22 4.878A2.999 2.999 0 0 1 5.999 3c.766 0 1.461.288 1.991.76l1.414-1.414A4.977 4.977 0 0 0 6 1a4.997 4.997 0 0 0-4.424 2.673Z"/><path fill="#4CAF50" d="M6.001 11a4.977 4.977 0 0 0 3.352-1.298l-1.547-1.31A2.977 2.977 0 0 1 6 9c-1.3 0-2.405-.83-2.82-1.986L1.55 8.27A4.996 4.996 0 0 0 6 11Z"/><path fill="#1565C0" d="M10.903 5.02 10.899 5H6v2h2.826a3.01 3.01 0 0 1-1.022 1.393l1.548 1.309C9.242 9.802 11 8.5 11 6c0-.335-.034-.662-.097-.98Z"/></svg>