<svg xmlns="http://www.w3.org/2000/svg" width="64" height="64" fill="none"><rect width="64" height="64" fill="#F4EBFF" rx="32"/><g stroke-linecap="round" stroke-linejoin="round" stroke-width="2.5"><path stroke="#AD5CD6" d="M22 42h-4a1 1 0 0 1-1-1v-5a1 1 0 0 1 1-1h4"/><path stroke="#7E1FAD" d="M22 42h-4a1 1 0 0 1-1-1v-5a1 1 0 0 1 1-1h4"/><path stroke="#AD5CD6" d="M28.091 31C26.875 29.465 26 27.82 26 26c0-2.711 2.209-5 4.933-5a4.89 4.89 0 0 1 4.567 3 4.89 4.89 0 0 1 4.568-3C42.79 21 45 23.289 45 26c0 3.654-3.523 6.884-6.278 8.915"/><path stroke="#7E1FAD" d="M30 36h4l8.375-1.926a2.075 2.075 0 0 1 1.477 3.856L39 40l-8 2h-9v-7l3.125-3.125A3 3 0 0 1 27.25 31h6.25a2.5 2.5 0 0 1 0 5H30Z"/></g></svg>