<svg xmlns="http://www.w3.org/2000/svg" fill="none" viewBox="0 0 20 20"><path stroke="currentColor" stroke-linecap="round" stroke-linejoin="round" stroke-width="1.5" d="M2.5 9.167H5a1.667 1.667 0 0 1 1.667 1.666v2.5A1.667 1.667 0 0 1 5 15h-.833A1.667 1.667 0 0 1 2.5 13.333V9.167Zm0 0a7.5 7.5 0 1 1 15 0m0 0v4.166A1.667 1.667 0 0 1 15.833 15H15a1.666 1.666 0 0 1-1.667-1.667v-2.5A1.667 1.667 0 0 1 15 9.167h2.5Z"/><path stroke="currentColor" stroke-linecap="round" stroke-linejoin="round" stroke-width="1.5" d="M17.5 13.333V15a3.334 3.334 0 0 1-3.333 3.333H10"/></svg>