<svg width="16" height="15" viewBox="0 0 16 15" fill="none" xmlns="http://www.w3.org/2000/svg">
<mask id="path-1-inside-1_96_12958" fill="white">
<path fill-rule="evenodd" clip-rule="evenodd" d="M15.7475 7.54264C15.3079 6.66234 14.3806 6.28498 13.4314 6.32972C12.5144 6.37273 11.8452 6.95596 11.3351 7.6734C10.7572 8.48488 10.352 9.41164 9.88032 10.2856C9.42524 11.1281 8.93631 11.9533 8.2821 12.6581C7.55674 13.4404 6.64487 14.0294 5.62109 14.339C6.09453 14.6797 6.75103 14.7565 7.31686 14.7778C7.95558 14.8024 8.6029 14.7439 9.23242 14.6315C10.3824 14.4256 11.6237 14.023 12.473 13.184C11.1474 13.2012 10.0772 12.3095 9.98247 10.9658C10.8358 11.9986 12.127 12.3961 13.4182 12.029C14.5499 11.7073 15.4589 10.8127 15.8261 9.69895C16.058 8.99127 16.0809 8.2228 15.7475 7.54264Z"/>
</mask>
<path d="M14.4055 8.21277C14.7756 8.95393 15.6765 9.25473 16.4176 8.88463C17.1588 8.51453 17.4596 7.61368 17.0895 6.87252L14.4055 8.21277ZM13.4314 6.32972L13.5017 7.82807L13.502 7.82805L13.4314 6.32972ZM11.3351 7.6734L12.5569 8.54351L12.5575 8.54267L11.3351 7.6734ZM9.88032 10.2856L11.2001 10.9985L11.2003 10.9981L9.88032 10.2856ZM8.2821 12.6581L7.18271 11.6377L7.18222 11.6382L8.2821 12.6581ZM5.62109 14.339L5.18679 12.9033L2.27961 13.7827L4.74502 15.5566L5.62109 14.339ZM7.31686 14.7778L7.37473 13.2789L7.37308 13.2788L7.31686 14.7778ZM9.23242 14.6315L9.49608 16.1082L9.49676 16.108L9.23242 14.6315ZM12.473 13.184L13.5272 14.2512L16.1746 11.6359L12.4536 11.6842L12.473 13.184ZM9.98247 10.9658L11.1388 10.0104L8.1571 6.40138L8.48618 11.0712L9.98247 10.9658ZM13.4182 12.029L13.8283 13.4719L13.8284 13.4719L13.4182 12.029ZM15.8261 9.69895L17.2507 10.1687L17.2516 10.1659L15.8261 9.69895ZM17.0944 6.8824C16.7297 6.13854 15.8311 5.83112 15.0873 6.19576C14.3434 6.56041 14.036 7.45903 14.4006 8.20289L17.0944 6.8824ZM15.7475 7.54264L17.0895 6.87252C16.3098 5.31109 14.7158 4.76752 13.3608 4.83138L13.4314 6.32972L13.502 7.82805C13.7627 7.81577 13.9741 7.86448 14.1202 7.93612C14.254 8.00173 14.344 8.08951 14.4055 8.21277L15.7475 7.54264ZM13.4314 6.32972L13.3611 4.83136C11.7695 4.90601 10.7342 5.93001 10.1126 6.80412L11.3351 7.6734L12.5575 8.54267C12.9563 7.98192 13.2592 7.83944 13.5017 7.82807L13.4314 6.32972ZM11.3351 7.6734L10.1132 6.80329C9.46452 7.71421 8.95118 8.84898 8.56031 9.57319L9.88032 10.2856L11.2003 10.9981C11.7529 9.9743 12.0498 9.25555 12.5569 8.54351L11.3351 7.6734ZM9.88032 10.2856L8.56056 9.57273C8.11692 10.394 7.70137 11.0789 7.18271 11.6377L8.2821 12.6581L9.3815 13.6786C10.1713 12.8278 10.7336 11.8622 11.2001 10.9985L9.88032 10.2856ZM8.2821 12.6581L7.18222 11.6382C6.62709 12.2369 5.94096 12.6752 5.18679 12.9033L5.62109 14.339L6.0554 15.7748C7.34877 15.3836 8.48639 14.6439 9.38199 13.6781L8.2821 12.6581ZM5.62109 14.339L4.74502 15.5566C5.61539 16.1829 6.68455 16.2551 7.26065 16.2767L7.31686 14.7778L7.37308 13.2788C7.12832 13.2696 6.92371 13.2498 6.75547 13.213C6.58537 13.1757 6.51447 13.1339 6.49717 13.1215L5.62109 14.339ZM7.31686 14.7778L7.25899 16.2766C8.02575 16.3062 8.78265 16.2356 9.49608 16.1082L9.23242 14.6315L8.96877 13.1549C8.42314 13.2523 7.8854 13.2986 7.37473 13.2789L7.31686 14.7778ZM9.23242 14.6315L9.49676 16.108C10.7419 15.8851 12.351 15.413 13.5272 14.2512L12.473 13.184L11.4189 12.1169C10.8964 12.6331 10.023 12.9661 8.96809 13.155L9.23242 14.6315ZM12.473 13.184L12.4536 11.6842C11.8509 11.692 11.5126 11.3411 11.4788 10.8603L9.98247 10.9658L8.48618 11.0712C8.64167 13.2778 10.4439 14.7105 12.4925 14.6839L12.473 13.184ZM9.98247 10.9658L8.82608 11.9212C10.0616 13.4166 11.969 14.0004 13.8283 13.4719L13.4182 12.029L13.0081 10.5862C12.285 10.7917 11.61 10.5807 11.1388 10.0104L9.98247 10.9658ZM13.4182 12.029L13.8284 13.4719C15.4531 13.01 16.7323 11.7405 17.2507 10.1687L15.8261 9.69895L14.4016 9.22918C14.1854 9.88485 13.6466 10.4046 13.008 10.5862L13.4182 12.029ZM15.8261 9.69895L17.2516 10.1659C17.5691 9.19679 17.645 8.00558 17.0944 6.8824L15.7475 7.54264L14.4006 8.20289C14.5169 8.44001 14.5469 8.78575 14.4007 9.23197L15.8261 9.69895Z" fill="#A8CCF0" mask="url(#path-1-inside-1_96_12958)"/>
<mask id="path-3-inside-2_96_12958" fill="white">
<path fill-rule="evenodd" clip-rule="evenodd" d="M15.7038 6.56586C15.2728 5.13443 14.4006 3.87964 13.2414 2.81582C11.9898 1.67344 10.5034 0.806897 8.94483 0.153121C8.81915 0.100934 8.69233 0.0493199 8.56665 0H8.56551C6.64708 2.29739 0 4.01269 0 8.82942C0 10.7133 1.19192 12.4739 2.93991 13.1805C4.02624 13.5486 5.19692 13.4798 6.24078 13.005C7.24963 12.5462 8.01747 11.7381 8.63609 10.8366C9.288 9.88578 9.78612 8.84146 10.4065 7.86997C10.9826 6.96845 11.72 6.06807 12.8133 5.81344C13.8043 5.5829 14.9779 5.8404 15.7038 6.56586Z"/>
</mask>
<path d="M14.2675 6.9983C14.5063 7.79156 15.343 8.241 16.1363 8.00217C16.9295 7.76334 17.379 6.92667 17.1401 6.13342L14.2675 6.9983ZM13.2414 2.81582L14.2556 1.71067L14.2526 1.70793L13.2414 2.81582ZM8.94483 0.153121L9.52505 -1.23013L9.52008 -1.23219L8.94483 0.153121ZM8.56665 0L9.11462 -1.39633L8.85045 -1.5H8.56665V0ZM8.56551 0V-1.5H7.86387L7.41415 -0.961441L8.56551 0ZM2.93991 13.1805L2.37779 14.5712L2.41768 14.5873L2.45843 14.6011L2.93991 13.1805ZM6.24078 13.005L5.61983 11.6395L5.61968 11.6396L6.24078 13.005ZM8.63609 10.8366L9.8729 11.6853L9.87324 11.6848L8.63609 10.8366ZM10.4065 7.86997L9.14254 7.0622L9.14223 7.06269L10.4065 7.86997ZM12.8133 5.81344L12.4734 4.35245L12.473 4.35255L12.8133 5.81344ZM14.6435 7.62687C15.2295 8.21246 16.1792 8.21215 16.7648 7.62617C17.3504 7.04019 17.3501 6.09044 16.7641 5.50485L14.6435 7.62687ZM15.7038 6.56586L17.1401 6.13342C16.6159 4.39223 15.5694 2.91641 14.2556 1.71067L13.2414 2.81582L12.2271 3.92098C13.2317 4.84287 13.9298 5.87663 14.2675 6.9983L15.7038 6.56586ZM13.2414 2.81582L14.2526 1.70793C12.8452 0.423336 11.2013 -0.526989 9.52504 -1.23012L8.94483 0.153121L8.36462 1.53636C9.80557 2.14078 11.1343 2.92354 12.2301 3.92372L13.2414 2.81582ZM8.94483 0.153121L9.52008 -1.23219C9.3881 -1.287 9.25183 -1.34248 9.11462 -1.39633L8.56665 0L8.01869 1.39633C8.13283 1.44112 8.25021 1.48886 8.36958 1.53843L8.94483 0.153121ZM8.56665 0V-1.5H8.56551V0V1.5H8.56665V0ZM8.56551 0L7.41415 -0.961441C7.10668 -0.593243 6.52705 -0.166757 5.62173 0.400133C4.7968 0.916688 3.69586 1.55299 2.70882 2.23716C0.742384 3.60021 -1.5 5.62547 -1.5 8.82942H0H1.5C1.5 7.21664 2.58115 5.97589 4.41786 4.70276C5.3324 4.06884 6.25293 3.54451 7.21388 2.94278C8.09445 2.39139 9.06511 1.74194 9.71687 0.961441L8.56551 0ZM0 8.82942H-1.5C-1.5 11.3274 0.0655195 13.6365 2.37779 14.5712L2.93991 13.1805L3.50203 11.7898C2.31832 11.3113 1.5 10.0992 1.5 8.82942H0ZM2.93991 13.1805L2.45843 14.6011C3.91507 15.0948 5.47976 14.9991 6.86188 14.3703L6.24078 13.005L5.61968 11.6396C4.91408 11.9606 4.1374 12.0025 3.42139 11.7598L2.93991 13.1805ZM6.24078 13.005L6.86173 14.3704C8.21552 13.7548 9.17345 12.7046 9.8729 11.6853L8.63609 10.8366L7.39928 9.98792C6.86148 10.7717 6.28375 11.3376 5.61983 11.6395L6.24078 13.005ZM8.63609 10.8366L9.87324 11.6848C10.2394 11.1508 10.5547 10.6018 10.8388 10.0995C11.132 9.58106 11.3876 9.12057 11.6707 8.67725L10.4065 7.86997L9.14223 7.06269C8.80496 7.59086 8.50139 8.13827 8.22747 8.6226C7.94444 9.12303 7.68472 9.5716 7.39894 9.98841L8.63609 10.8366ZM10.4065 7.86997L11.6704 8.67774C12.2247 7.81037 12.6835 7.38381 13.1535 7.27434L12.8133 5.81344L12.473 4.35255C10.7566 4.75233 9.74053 6.12652 9.14254 7.0622L10.4065 7.86997ZM12.8133 5.81344L13.1531 7.27444C13.7194 7.1427 14.3383 7.32187 14.6435 7.62687L15.7038 6.56586L16.7641 5.50485C15.6174 4.35893 13.8892 4.0231 12.4734 4.35245L12.8133 5.81344Z" fill="#5299E0" mask="url(#path-3-inside-2_96_12958)"/>
</svg>
