<svg width="17" height="17" viewBox="0 0 17 17" fill="none" xmlns="http://www.w3.org/2000/svg">
<path d="M7.83464 10.4805C8.16797 12.1471 7.7213 13.4805 7.16797 14.8138H9.83464C11.168 11.1471 9.5013 6.8138 9.16797 5.48047" stroke="#C285E0" stroke-width="1.5" stroke-linecap="round" stroke-linejoin="round"/>
<path d="M9.16536 5.47982C9.16536 3.63982 7.52536 2.14648 5.4987 2.14648C3.47203 2.14648 1.83203 3.63982 1.83203 5.47982H3.16536L3.83203 4.81315L4.4987 5.47982H7.16536" stroke="#AD5CD6" stroke-width="1.5" stroke-linecap="round" stroke-linejoin="round"/>
<path d="M9.16797 4.90658C9.84304 4.40748 10.6618 4.1408 11.5013 4.14658C13.528 4.14658 15.168 5.63991 15.168 7.47991H13.168L12.5013 6.81324L11.8346 7.47991H9.83464" stroke="#AD5CD6" stroke-width="1.5" stroke-linecap="round" stroke-linejoin="round"/>
<path d="M4.42673 6.62078C2.99339 8.05411 2.89339 10.2674 4.19339 11.5741L7.02006 8.74078L7.48673 8.27411L7.96006 7.80078L9.37339 6.38744C8.07339 5.08078 5.86006 5.18744 4.42673 6.62078Z" stroke="#AD5CD6" stroke-width="1.5" stroke-linecap="round" stroke-linejoin="round"/>
</svg>
