<svg width="17" height="16" viewBox="0 0 17 16" fill="none" xmlns="http://www.w3.org/2000/svg">
<path d="M10.2005 1.33301H4.20052C3.8469 1.33301 3.50776 1.47348 3.25771 1.72353C3.00766 1.97358 2.86719 2.31272 2.86719 2.66634V13.333C2.86719 13.6866 3.00766 14.0258 3.25771 14.2758C3.50776 14.5259 3.8469 14.6663 4.20052 14.6663H12.2005C12.5541 14.6663 12.8933 14.5259 13.1433 14.2758C13.3934 14.0258 13.5339 13.6866 13.5339 13.333V4.66634L10.2005 1.33301Z" stroke="#FFCC66" stroke-width="1.5" stroke-linecap="round" stroke-linejoin="round"/>
<path d="M9.53125 1.33301V3.99967C9.53125 4.3533 9.67173 4.69244 9.92177 4.94248C10.1718 5.19253 10.511 5.33301 10.8646 5.33301H13.5313" stroke="#FFCC66" stroke-width="1.5" stroke-linecap="round" stroke-linejoin="round"/>
<path d="M5.53125 8.66699H6.86458" stroke="#FFDD99" stroke-width="1.5" stroke-linecap="round" stroke-linejoin="round"/>
<path d="M9.53125 8.66699H10.8646" stroke="#FFDD99" stroke-width="1.5" stroke-linecap="round" stroke-linejoin="round"/>
<path d="M5.53125 11.333H6.86458" stroke="#FFDD99" stroke-width="1.5" stroke-linecap="round" stroke-linejoin="round"/>
<path d="M9.53125 11.333H10.8646" stroke="#FFDD99" stroke-width="1.5" stroke-linecap="round" stroke-linejoin="round"/>
</svg>
