<svg width="17" height="16" viewBox="0 0 17 16" fill="none" xmlns="http://www.w3.org/2000/svg">
<path d="M14.6016 10.0004L12.5442 7.94312C12.2942 7.69315 11.9551 7.55273 11.6016 7.55273C11.248 7.55273 10.9089 7.69315 10.6589 7.94312L4.60156 14.0004" stroke="#C285E0" stroke-width="1.5" stroke-linecap="round" stroke-linejoin="round"/>
<path d="M13.2682 2H3.9349C3.19852 2 2.60156 2.59695 2.60156 3.33333V12.6667C2.60156 13.403 3.19852 14 3.9349 14H13.2682C14.0046 14 14.6016 13.403 14.6016 12.6667V3.33333C14.6016 2.59695 14.0046 2 13.2682 2Z" stroke="#AD5CD6" stroke-width="1.5" stroke-linecap="round" stroke-linejoin="round"/>
<path d="M6.60286 7.33366C7.33924 7.33366 7.9362 6.73671 7.9362 6.00033C7.9362 5.26395 7.33924 4.66699 6.60286 4.66699C5.86648 4.66699 5.26953 5.26395 5.26953 6.00033C5.26953 6.73671 5.86648 7.33366 6.60286 7.33366Z" fill="#D6ADEB"/>
</svg>
