<svg width="16" height="16" viewBox="0 0 16 16" fill="none" xmlns="http://www.w3.org/2000/svg">
<path d="M2.66797 14.6654H12.0013C12.3549 14.6654 12.6941 14.5249 12.9441 14.2748C13.1942 14.0248 13.3346 13.6857 13.3346 13.332V4.66536L10.0013 1.33203H4.0013C3.64768 1.33203 3.30854 1.47251 3.05849 1.72256C2.80844 1.9726 2.66797 2.31174 2.66797 2.66536V5.33203" stroke="#929AAF" stroke-width="1.5" stroke-linecap="round" stroke-linejoin="round"/>
<path d="M9.33203 1.33203V3.9987C9.33203 4.35232 9.47251 4.69146 9.72256 4.94151C9.9726 5.19156 10.3117 5.33203 10.6654 5.33203H13.332" fill="#929AAF"/>
<path d="M3.33203 8L1.33203 10L3.33203 12" stroke="#CFD4E2" stroke-width="1.5" stroke-linecap="round" stroke-linejoin="round"/>
<path d="M6 12L8 10L6 8" stroke="#CFD4E2" stroke-width="1.5" stroke-linecap="round" stroke-linejoin="round"/>
</svg>
