<svg xmlns="http://www.w3.org/2000/svg" width="25" height="24" fill="none"><rect width="24" height="24" x=".5" fill="#F0AB00" rx="12"/><path fill="#fff" d="M12.206 13.851a1.854 1.854 0 0 1-1.837-1.838c0-1.002.807-1.837 1.837-1.837.501 0 .975.195 1.281.529l.947-.947a3.13 3.13 0 0 0-2.256-.919 3.173 3.173 0 0 0-3.174 3.174 3.173 3.173 0 0 0 3.174 3.174 3.3 3.3 0 0 0 2.256-.918l-.947-.947c-.334.306-.78.529-1.28.529Z"/><path fill="#fff" d="M14.881 11.207a.808.808 0 1 0 .001 1.616.808.808 0 0 0 0-1.617Z"/><path fill="#fff" d="M6.5 18h12V6h-12v12Zm1.336-1.364v-9.3h9.3v9.3h-9.3Z"/></svg>