<svg xmlns="http://www.w3.org/2000/svg" width="24" height="24" fill="none"><rect width="24" height="24" fill="#FFC027" rx="12"/><path fill="#272934" fill-rule="evenodd" d="M2.638 9.392c-.177.034-.192.28.001.268.28-.015 1.567-.047 2.733.07 1.341.135 2.635.53 3.633.9 1 .37 3.222 1.764 3.222 1.764s-2.87 1.797-3.833 4.467c-.05.143.016.187.182.078 3.67-2.41 6.22-3.882 10.681-4.849.283-.062.253-.1.01-.167-.244-.07-1.1-.238-3.305-1.148-2.204-.91-4.32-1.747-6.81-1.955-.365-.031-.743-.044-1.125-.044-2.57 0-5.314.604-5.389.616ZM20.39 7.085c-.698.923-2.158 2.095-3.549 2.708-.182.08-.139.204-.06.259.026.017.124.06.265.116l1.838.652c.153.053.144.041.21-.03.978-1.079 1.35-2.638 1.403-3.66 0 0 .012-.13-.014-.13-.018 0-.047.023-.093.085Z" clip-rule="evenodd"/></svg>