<svg xmlns="http://www.w3.org/2000/svg" width="24" height="24" fill="none"><rect width="24" height="24" fill="#F0AB00" rx="12"/><path fill="#fff" d="m11.999 19-2.075-2.055C7.818 14.882 6 13.097 6 10.875 6 8.656 7.612 7 9.83 7c.78-.001 1.54.244 2.169.7a3.676 3.676 0 0 1 2.167-.7C16.389 7 18 8.63 18 10.876s-1.81 4.017-3.924 6.07L12 19ZM9.83 8.326c-1.496 0-2.501 1.032-2.501 2.566 0 1.669 1.637 3.284 3.531 5.141l1.13 1.112 1.128-1.112c1.897-1.857 3.535-3.464 3.535-5.14 0-1.535-1.005-2.567-2.502-2.567a2.377 2.377 0 0 0-1.693.718l-.477.483-.477-.483a2.377 2.377 0 0 0-1.694-.717"/></svg>