<svg xmlns="http://www.w3.org/2000/svg" width="24" height="24" fill="none"><g clip-path="url(#a)"><rect width="24" height="24" fill="#001A33" rx="12"/><path fill="#fff" stroke="#fff" stroke-width=".15" d="m2.352 11.223.02.046.94 2.262.522-1.25.379-.91.042-.101.018-.047h.955l-.05.106-.443.966.515 1.235.942-2.261.02-.046h.953l-.049.106-1.677 3.662-.02.044h-.345l-.02-.044-.779-1.691-.773 1.691-.02.044h-.345l-.02-.044-1.685-3.662-.05-.106h.97ZM8.853 8.925v2.748a1.508 1.508 0 0 1 1.209-.602c.44 0 .796.13 1.043.387.245.256.371.629.372 1.093v2.373h-.88v-2.086c0-.356-.066-.595-.188-.743-.119-.145-.305-.219-.58-.219a.88.88 0 0 0-.702.327c-.171.21-.274.512-.274.882v1.839h-.88v-6h.88ZM14.375 11.071c1.171 0 2.049.87 2.049 1.998 0 1.128-.886 2.006-2.049 2.006-1.163 0-2.049-.878-2.049-2.006 0-1.127.878-1.998 2.049-1.998Zm0 .805c-.653 0-1.145.521-1.145 1.193 0 .68.5 1.201 1.145 1.201s1.145-.52 1.145-1.2c0-.673-.492-1.194-1.145-1.194ZM20.665 11.223v.178l-.015.02-1.968 2.738h1.959v.765h-3.368v-.18l.015-.02 1.96-2.737h-1.895v-.764h3.312ZM22.127 14.041a.52.52 0 0 1 .374.305c.026.062.039.129.039.196l-.006.074a.51.51 0 0 1-.606.426.515.515 0 0 1-.404-.4.509.509 0 0 1 .503-.61l.1.009Z"/></g><defs><clipPath id="a"><rect width="24" height="24" fill="#fff" rx="12"/></clipPath></defs></svg>