<svg xmlns="http://www.w3.org/2000/svg" fill="none" viewBox="0 0 16 16">
<path fill="currentColor" d="M10.053 7.575 7.654 6.528a2.513 2.513 0 0 1-1.296-1.296L5.312 2.833a.232.232 0 0 0-.427 0L3.838 5.232a2.513 2.513 0 0 1-1.295 1.296L.139 7.576a.233.233 0 0 0 0 .426l2.445 1.08c.578.257 1.039.721 1.29 1.302l1.013 2.354c.08.186.346.188.426 0l1.045-2.396a2.513 2.513 0 0 1 1.296-1.296L10.053 8a.232.232 0 0 0 0-.426v.002ZM13.618 2.82l-1.386-.604a1.446 1.446 0 0 1-.748-.748L10.878.08a.134.134 0 0 0-.246 0l-.605 1.387a1.447 1.447 0 0 1-.748.748l-1.388.605a.134.134 0 0 0 0 .246l1.412.625c.334.147.601.417.745.752l.586 1.36c.047.107.2.107.247 0l.604-1.384c.146-.335.414-.602.748-.748l1.387-.605a.134.134 0 0 0 0-.246h-.002ZM12.186 11.867l-.966-.422a1.007 1.007 0 0 1-.52-.52l-.422-.966a.093.093 0 0 0-.171 0l-.422.966c-.101.233-.288.419-.52.52l-.967.422a.093.093 0 0 0 0 .171l.983.435c.233.103.419.29.52.524l.407.947c.033.075.14.075.172 0l.42-.964c.102-.233.289-.42.521-.52l.966-.422a.093.093 0 0 0 0-.171h-.001Z"/></svg>