<svg viewBox="0 0 20 20" fill="none" xmlns="http://www.w3.org/2000/svg">
<g clip-path="url(#clip0_5869_11403)">
<path d="M2.49438 13.6174C2.61691 13.9265 2.64419 14.2652 2.57271 14.5899L1.68521 17.3316C1.65661 17.4706 1.66401 17.6147 1.70669 17.75C1.74937 17.8854 1.82593 18.0077 1.9291 18.1052C2.03227 18.2027 2.15864 18.2722 2.29621 18.3071C2.43379 18.3421 2.57801 18.3413 2.71521 18.3049L5.55938 17.4733C5.86581 17.4125 6.18315 17.439 6.47521 17.5499C8.2547 18.3809 10.2705 18.5568 12.167 18.0464C14.0635 17.536 15.7188 16.3721 16.8408 14.7602C17.9628 13.1483 18.4795 11.1919 18.2996 9.23622C18.1198 7.2805 17.255 5.45115 15.8578 4.07092C14.4606 2.6907 12.6208 1.84829 10.663 1.69234C8.70526 1.53639 6.75532 2.07691 5.15725 3.21854C3.55917 4.36017 2.41565 6.02955 1.92846 7.93212C1.44126 9.8347 1.64169 11.8482 2.49438 13.6174Z" stroke="currentColor" stroke-width="1.5" stroke-linecap="round" stroke-linejoin="round"/>
<path d="M10 6.66602V9.99935" stroke="currentColor" stroke-width="1.5" stroke-linecap="round" stroke-linejoin="round"/>
<path d="M10 13.334H10.0088" stroke="currentColor" stroke-width="1.5" stroke-linecap="round" stroke-linejoin="round"/>
</g>
<defs>
<clipPath id="clip0_5869_11403">
<rect width="20" height="20" fill="white"/>
</clipPath>
</defs>
</svg>
