<svg xmlns="http://www.w3.org/2000/svg" width="64" height="64" fill="none"><g clip-path="url(#a)"><mask id="b" width="56" height="56" x="4" y="4" maskUnits="userSpaceOnUse" style="mask-type:alpha"><path fill="#fff" fill-rule="evenodd" d="M24.998 4h14L53 12.085l7 12.04v15.75l-7 12.031-14.002 8.092H24.996L11 51.906 4 39.875v-15.75l7-12.04L24.998 4ZM46 39.788V24.125l-14.004-8.094L18 24.125v15.75l13.998 8.094L46 39.788Z" clip-rule="evenodd"/></mask><g mask="url(#b)"><path fill="url(#c)" d="M53 12.085v23.634c-1.61.93-4.167 2.467-7 4.101V16.031L24.998 4h14L53 12.085Z"/><path fill="url(#d)" d="M60 24.126v15.75L39 51.907l-7.002-3.937C39.002 43.924 46.022 39.81 53 35.72V12.086l7 12.04Z"/><path fill="url(#e)" d="m60 39.875-7 12.031c-5.11 2.951-8.84 5.11-14.002 8.092C31.998 55.955 25 51.915 18 47.875v-7.781l21 11.812 21-12.031Z"/><path fill="url(#f)" d="M38.991 59.998H24.996L11 51.906V28.281l7-4.156v23.75l20.991 12.123Z"/><path fill="url(#g)" d="m32 16.03-14 8.094-7 4.157v23.625L4 39.874v-15.75l20.996-12.042c2.334 1.348 4.67 2.601 7.004 3.948Z"/><path fill="url(#h)" d="M46 16.031v8.094L25 12.094 4 24.125l7-12.031L24.998 4 46 16.031Z"/></g></g><defs><linearGradient id="c" x1="25" x2="46.11" y1="4" y2="39.875" gradientUnits="userSpaceOnUse"><stop stop-color="#4E5AE5"/><stop offset=".535" stop-color="#208BD8"/><stop offset="1" stop-color="#39ACE2"/></linearGradient><linearGradient id="d" x1="53" x2="39" y1="12.095" y2="51.907" gradientUnits="userSpaceOnUse"><stop stop-color="#3A9BEE"/><stop offset=".505" stop-color="#0879B9"/><stop offset="1" stop-color="#6681CE"/></linearGradient><linearGradient id="e" x1="54.203" x2="19.859" y1="52.672" y2="39.875" gradientUnits="userSpaceOnUse"><stop stop-color="#1560AB"/><stop offset=".434" stop-color="#3A66BA"/><stop offset="1" stop-color="#8132CC"/></linearGradient><linearGradient id="f" x1="18.109" x2="39" y1="24.125" y2="60" gradientUnits="userSpaceOnUse"><stop stop-color="#CE4CEB"/><stop offset=".485" stop-color="#9B5DD6"/><stop offset=".984" stop-color="#5468C4"/></linearGradient><linearGradient id="g" x1="24.781" x2="10.563" y1="12.093" y2="51.906" gradientUnits="userSpaceOnUse"><stop stop-color="#5661E7"/><stop offset=".48" stop-color="#E294F3"/><stop offset="1" stop-color="#B275E0"/></linearGradient><linearGradient id="h" x1="46" x2="4.219" y1="15.594" y2="23.469" gradientUnits="userSpaceOnUse"><stop stop-color="#30A6DF"/><stop offset=".515" stop-color="#9C8FEF"/><stop offset=".98" stop-color="#EBB0F7"/></linearGradient><clipPath id="a"><path fill="#fff" d="M4 4h56v56H4z"/></clipPath></defs></svg>