<svg xmlns="http://www.w3.org/2000/svg" fill="none" viewBox="0 0 25 24"><path stroke="currentColor" stroke-linecap="round" stroke-width="1.5" d="M11.32 9h-3m3.21 3H8.3m7.02 3h-7m12.31-2.79v2.8a4.2 4.2 0 0 1-4.2 4.2h-7.7a4.2 4.2 0 0 1-4.2-4.2V8.25a4.2 4.2 0 0 1 4.2-4.2h5.8"/><path stroke="currentColor" stroke-linecap="round" stroke-linejoin="round" stroke-width="1.5" d="M19.17 4.4a1.38 1.38 0 0 1 1.95 1.96l-3.9 3.91a1.3 1.3 0 0 1-.56.33l-1.87.54a.32.32 0 0 1-.4-.4l.54-1.87c.06-.2.18-.4.33-.55l3.91-3.92Z"/></svg>