<svg xmlns="http://www.w3.org/2000/svg" fill="none" viewBox="0 0 20 20"><path stroke="currentColor" stroke-linecap="round" stroke-linejoin="round" stroke-width="1.5" d="M3.917 13.75c-1.25 1.05-1.667 4.166-1.667 4.166s3.117-.416 4.167-1.666c.591-.7.583-1.775-.075-2.425a1.817 1.817 0 0 0-2.425-.075Z"/><path stroke="currentColor" stroke-linecap="round" stroke-linejoin="round" stroke-width="1.5" d="M3.917 13.75c-1.25 1.05-1.667 4.166-1.667 4.166s3.117-.416 4.167-1.666c.591-.7.583-1.775-.075-2.425a1.817 1.817 0 0 0-2.425-.075ZM10.168 12.5l-2.5-2.5a18.333 18.333 0 0 1 1.667-3.292A10.734 10.734 0 0 1 18.5 1.666c0 2.267-.65 6.25-5 9.167a18.632 18.632 0 0 1-3.333 1.667Z"/><path stroke="currentColor" stroke-linecap="round" stroke-linejoin="round" stroke-width="1.5" d="m10.168 12.5-2.5-2.5a18.333 18.333 0 0 1 1.667-3.292A10.734 10.734 0 0 1 18.5 1.666c0 2.267-.65 6.25-5 9.167a18.632 18.632 0 0 1-3.333 1.667Z"/><path stroke="currentColor" stroke-linecap="round" stroke-linejoin="round" stroke-width="1.5" d="M7.667 10H3.5s.458-2.524 1.667-3.332c1.35-.9 4.166 0 4.166 0M10.168 12.5v4.167s2.525-.458 3.333-1.666c.9-1.35 0-4.167 0-4.167"/></svg>