<svg xmlns="http://www.w3.org/2000/svg" fill="none" viewBox="0 0 24 24"><path stroke="currentColor" stroke-linecap="round" stroke-linejoin="round" stroke-width="1.5" d="M12 20a8 8 0 1 0 0-16 8 8 0 0 0 0 16Z"/><path stroke="currentColor" stroke-linecap="round" stroke-linejoin="round" stroke-width="1.3" d="M12.09 4c-2.91 2.16-4.54 5.02-4.54 8 0 2.98 1.63 5.84 4.54 8 2.9-2.16 4.53-5.02 4.53-8 0-2.98-1.62-5.84-4.53-8Z"/><path stroke="currentColor" stroke-linecap="round" stroke-linejoin="round" stroke-width="1.3" d="M5 8s3.14 2 7 2c3.62 0 7-1.8 7-1.8m0 7.76s-3.14-1.58-7-1.58c-3.62 0-7 1.39-7 1.39"/><path stroke="currentColor" stroke-linecap="round" stroke-width="1.3" d="M12 4.89V20"/></svg>