<svg xmlns="http://www.w3.org/2000/svg"  fill="none" viewBox="0 0 20 20"><path stroke="currentColor" stroke-linecap="round" stroke-linejoin="round" stroke-width="1.5" d="M10.171 2H9.82a1.6 1.6 0 0 0-1.6 1.6v.144a1.6 1.6 0 0 1-.8 1.384l-.344.2a1.6 1.6 0 0 1-1.6 0l-.12-.064a1.6 1.6 0 0 0-2.184.584l-.176.304a1.6 1.6 0 0 0 .584 2.184l.12.08a1.6 1.6 0 0 1 .8 1.376v.408a1.6 1.6 0 0 1-.8 1.392l-.12.072a1.6 1.6 0 0 0-.584 2.184l.176.304a1.6 1.6 0 0 0 2.184.584l.12-.064a1.6 1.6 0 0 1 1.6 0l.344.2a1.6 1.6 0 0 1 .8 1.384v.144a1.6 1.6 0 0 0 1.6 1.6h.352a1.6 1.6 0 0 0 1.6-1.6v-.144a1.6 1.6 0 0 1 .8-1.384l.344-.2a1.6 1.6 0 0 1 1.6 0l.12.064a1.6 1.6 0 0 0 2.184-.584l.176-.312a1.6 1.6 0 0 0-.584-2.184l-.12-.064a1.6 1.6 0 0 1-.8-1.392v-.4a1.6 1.6 0 0 1 .8-1.392l.12-.072a1.6 1.6 0 0 0 .584-2.184l-.176-.304a1.6 1.6 0 0 0-2.184-.584l-.12.064a1.6 1.6 0 0 1-1.6 0l-.344-.2a1.6 1.6 0 0 1-.8-1.384V3.6a1.6 1.6 0 0 0-1.6-1.6Z"/><path stroke="currentColor" stroke-linecap="round" stroke-linejoin="round" stroke-width="1.5" d="M10.002 12.4a2.4 2.4 0 1 0 0-4.8 2.4 2.4 0 0 0 0 4.8Z"/></svg>