<svg xmlns="http://www.w3.org/2000/svg" width="16" height="16" fill="none">
  <g stroke-linecap="round" stroke-linejoin="round" stroke-width="1.5">
    <path stroke="#005786" d="M6 2H2.667A.667.667 0 0 0 2 2.667V6c0 .368.298.667.667.667H6A.667.667 0 0 0 6.667 6V2.667A.667.667 0 0 0 6 2ZM6 9.333H2.667A.667.667 0 0 0 2 10v3.333c0 .368.298.667.667.667H6a.667.667 0 0 0 .667-.667V10A.667.667 0 0 0 6 9.333Z"/>
    <path stroke="#2B88BA" d="M9.333 2.667H14M9.333 6H14M9.333 10H14M9.333 13.333H14"/>
  </g>
</svg>