<svg width="16" height="16" viewBox="0 0 16 16" fill="none" xmlns="http://www.w3.org/2000/svg">
<rect width="16" height="16" rx="8" fill="#1774B3"/>
<g clip-path="url(#clip0_95_7973)">
<rect x="3.33203" y="3.33301" width="9.33333" height="9.33333" rx="4.66667" fill="white"/>
<mask id="mask0_95_7973" style="mask-type:alpha" maskUnits="userSpaceOnUse" x="3" y="3" width="10" height="10">
<rect x="3.33203" y="3.33301" width="9.33333" height="9.33333" rx="4" fill="white"/>
</mask>
<g mask="url(#mask0_95_7973)">
<path d="M5.6658 7.35594C5.27332 6.89467 3.28221 5.80529 3.09076 4.5C2.80741 4.68058 2.55469 5.54031 2.55469 5.95251V9.55433C2.55469 9.79968 2.82272 10.4278 3.33007 10.7222C3.55982 10.261 4.99571 8.94585 5.6658 7.35594Z" fill="#EF455A"/>
<path d="M8.02557 5.27734L7.02344 5.45683V9.24102C7.02344 10.8115 8.26489 10.9013 8.26489 10.9013H8.87814C9.22216 10.9013 9.77557 10.6769 9.77557 10.6769L9.59609 9.88418C8.36959 10.3329 8.02557 9.76452 8.02557 9.39059V7.37136H9.59609V6.54871H8.02557V5.27734Z" fill="#1774B3"/>
</g>
</g>
<defs>
<clipPath id="clip0_95_7973">
<rect x="3.33203" y="3.33301" width="9.33333" height="9.33333" rx="4.66667" fill="white"/>
</clipPath>
</defs>
</svg>
