<svg width="20" height="20" viewBox="0 0 20 20" fill="none" xmlns="http://www.w3.org/2000/svg">
<path d="M12.5013 4.90033L11.668 8.33366H16.5263C16.785 8.33366 17.0402 8.3939 17.2717 8.50961C17.5031 8.62533 17.7044 8.79333 17.8596 9.00033C18.0149 9.20732 18.1198 9.44761 18.1661 9.70218C18.2124 9.95675 18.1987 10.2186 18.1263 10.467L16.1846 17.1337C16.0837 17.4799 15.8731 17.784 15.5846 18.0003C15.2961 18.2167 14.9453 18.3337 14.5846 18.3337H3.33464C2.89261 18.3337 2.46868 18.1581 2.15612 17.8455C1.84356 17.5329 1.66797 17.109 1.66797 16.667V10.0003C1.66797 9.5583 1.84356 9.13437 2.15612 8.82181C2.46868 8.50925 2.89261 8.33366 3.33464 8.33366H5.63464C5.94471 8.33349 6.24858 8.24684 6.5121 8.08343C6.77561 7.92002 6.98832 7.68634 7.1263 7.40866L10.0013 1.66699C10.3943 1.67186 10.7811 1.76547 11.1328 1.94082C11.4845 2.11618 11.7921 2.36875 12.0325 2.67966C12.2729 2.99057 12.4399 3.35179 12.5211 3.73633C12.6023 4.12086 12.5955 4.51877 12.5013 4.90033Z" stroke="#646B82" stroke-width="1.25" stroke-linecap="round" stroke-linejoin="round"/>
<path d="M5.83203 8.33594V18.3359" stroke="#646B82" stroke-width="1.25" stroke-linecap="round" stroke-linejoin="round"/>
</svg>
