<svg xmlns="http://www.w3.org/2000/svg" fill="none" viewBox="0 0 20 20"><g fill="currentColor" fill-rule="evenodd" clip-rule="evenodd"><path d="M10 1.875a8.125 8.125 0 1 0 0 16.25 8.125 8.125 0 0 0 0-16.25ZM.625 10a9.375 9.375 0 1 1 18.75 0 9.375 9.375 0 0 1-18.75 0Z"/><path d="M9.375 18.75V1.25h1.25v17.5h-1.25Z"/><path d="M18.75 10.625H1.25v-1.25h17.5v1.25Z"/><path d="M7.658 4.13C6.85 5.61 6.25 7.685 6.25 10s.6 4.39 1.408 5.872c.405.742.851 1.316 1.281 1.695.439.388.805.527 1.061.527h.625v1.25H10c-.681 0-1.331-.348-1.888-.84-.566-.5-1.097-1.2-1.551-2.033C5.65 14.8 5 12.519 5 10s.65-4.801 1.56-6.47c.456-.833.986-1.533 1.552-2.032C8.669 1.006 9.319.659 10 .659h.625v1.25H10c-.256 0-.622.139-1.061.526-.43.38-.876.953-1.281 1.694Z"/><path d="M12.34 15.874c.808-1.482 1.408-3.558 1.408-5.871 0-2.314-.6-4.39-1.409-5.872-.404-.742-.85-1.316-1.28-1.696-.44-.387-.805-.526-1.061-.526h-.625V.66h.625c.68 0 1.33.347 1.888.84.566.5 1.096 1.2 1.55 2.033.911 1.67 1.562 3.952 1.562 6.47 0 2.52-.65 4.802-1.561 6.47-.455.834-.985 1.534-1.551 2.033-.557.492-1.207.839-1.888.839h-.625v-1.25h.625c.256 0 .622-.139 1.06-.526.43-.38.877-.953 1.281-1.694Z"/><path d="m15.687 4.103.261-.559 1.133.53-.265.566c-.09.191-.242.358-.38.489a4.79 4.79 0 0 1-.54.431c-.416.29-.956.6-1.57.883C13.106 7.007 11.53 7.5 10 7.5c-1.533 0-3.11-.504-4.329-1.072a10.855 10.855 0 0 1-1.565-.883 5.022 5.022 0 0 1-.537-.422 1.714 1.714 0 0 1-.38-.47l-.277-.56 1.12-.556.274.552s.026.038.11.115a3.8 3.8 0 0 0 .402.314c.348.241.824.517 1.382.777 1.124.524 2.515.955 3.8.955 1.287 0 2.678-.422 3.802-.941a9.235 9.235 0 0 0 1.378-.774c.173-.12.306-.228.398-.315.083-.078.108-.117.109-.117ZM4.313 15.897l-.262.559-1.132-.53.265-.566a1.7 1.7 0 0 1 .38-.489c.149-.14.333-.287.54-.431.415-.29.956-.6 1.57-.883C6.892 12.993 8.468 12.5 10 12.5c1.533 0 3.11.504 4.328 1.072.613.286 1.152.596 1.566.883.206.143.389.286.537.422.136.125.288.287.379.47l.277.56-1.12.556-.273-.552s-.027-.038-.11-.115a3.798 3.798 0 0 0-.403-.314 9.622 9.622 0 0 0-1.381-.777c-1.125-.524-2.516-.955-3.8-.955-1.287 0-2.679.422-3.802.941a9.235 9.235 0 0 0-1.378.774 3.565 3.565 0 0 0-.398.315c-.083.078-.109.118-.11.117Z"/></g></svg>